<svg xmlns="http://www.w3.org/2000/svg" version="1.1" xmlns:xlink="http://www.w3.org/1999/xlink" xmlns:svgjs="http://svgjs.com/svgjs" height="139.27500343322754" width="270.22499656677246"><defs id="SvgjsDefs6354"></defs><g id="SvgjsG6355" rel="mainfill" name="main_text" xmlns:name="main_text" transform="translate(29.50250506401062,-146.16250133514404)" fill="#000000"><path d="M25.93 233.43L17.29 233.43L17.29 191.60L2.07 191.60L2.07 198.17L10.72 198.17L10.72 233.43L2.07 233.43L2.07 240L25.93 240ZM53.24 205.43C53.24 209.58 50.13 212.69 45.98 212.69L30.08 212.69L30.08 240L36.64 240L36.64 219.26L45.98 219.26C53.58 219.26 59.81 213.04 59.81 205.43C59.81 197.82 53.58 191.60 45.98 191.60L24.54 191.60L24.54 198.17L45.98 198.17C50.13 198.17 53.24 201.28 53.24 205.43ZM89.19 205.43C89.19 209.58 86.08 212.69 81.93 212.69L65.34 212.69L65.34 240L71.91 240L71.91 219.26L79.51 219.26L89.54 240L96.80 240L86.08 218.57C86.08 218.57 95.76 215.46 95.76 205.43C95.76 197.82 89.54 191.60 81.93 191.60L59.81 191.60L59.81 198.17L81.93 198.17C86.08 198.17 89.19 201.28 89.19 205.43ZM100.94 224.79C100.94 233.78 107.86 240.69 116.85 240.69C125.83 240.69 132.75 233.78 132.75 224.79L132.75 206.81C132.75 197.82 125.83 190.91 116.85 190.91C107.86 190.91 100.94 197.82 100.94 206.81ZM126.18 224.79C126.18 229.97 122.03 234.12 116.85 234.12C111.66 234.12 107.51 229.97 107.51 224.79L107.51 206.81C107.51 201.63 111.66 197.48 116.85 197.48C122.03 197.48 126.18 201.63 126.18 206.81ZM144.50 236.89C144.50 234.81 142.77 233.09 140.70 233.09C138.63 233.09 136.90 234.81 136.90 236.89C136.90 238.96 138.63 240.69 140.70 240.69C142.77 240.69 144.50 238.96 144.50 236.89ZM150.03 240L156.60 240L156.60 218.91L163.17 218.91L173.54 240L180.80 240L168.70 215.80L180.80 191.60L173.54 191.60L163.17 212.34L156.60 212.34L156.60 191.60L144.50 191.60L144.50 198.17L150.03 198.17ZM188.06 233.43L209.15 191.60L178.73 191.60L178.73 198.17L198.43 198.17L177.34 240L208.46 240L208.46 233.43Z" fill="#000000" style="fill: rgb(255, 255, 255);"></path></g><g id="SvgjsG6356" transform="translate(0,0) scale(2.25)" rel="mainfill" name="outline_container" xmlns:name="outlineContainer_mainfill" fill="#bebebe"><path d="M120.1 61.9H0V0h120.1zM.7 61.2h118.7V.7H.7z" fill="#bebebe" style="fill: rgb(255, 255, 255);"></path></g></svg>